<svg width="496" height="496" viewBox="0 0 496 496" fill="none" xmlns="http://www.w3.org/2000/svg">
<path d="M248 0C111 0 0 111 0 248C0 385 111 496 248 496C385 496 496 385 496 248C496 111 385 0 248 0ZM248 96C296.6 96 336 135.4 336 184C336 232.6 296.6 272 248 272C199.4 272 160 232.6 160 184C160 135.4 199.4 96 248 96ZM248 440C189.3 440 136.7 413.4 101.5 371.8C120.3 336.4 157.1 312 200 312C202.4 312 204.8 312.4 207.1 313.1C220.1 317.3 233.7 320 248 320C262.3 320 276 317.3 288.9 313.1C291.2 312.4 293.6 312 296 312C338.9 312 375.7 336.4 394.5 371.8C359.3 413.4 306.7 440 248 440Z" fill="white"/>
</svg>
